<svg width="9" height="16" viewBox="0 0 9 16" fill="none" xmlns="http://www.w3.org/2000/svg">
<path d="M7.94409 15.7678L0.230103 8.39673C0.175947 8.34586 0.132775 8.2845 0.103271 8.21631C0.0737681 8.14812 0.0585938 8.07455 0.0585938 8.00024C0.0585938 7.92594 0.0737681 7.85237 0.103271 7.78418C0.132775 7.71599 0.175947 7.65463 0.230103 7.60376L7.94409 0.232666C8.0563 0.127126 8.2046 0.0683594 8.35864 0.0683594C8.51269 0.0683594 8.66086 0.127126 8.77307 0.232666C8.8271 0.283614 8.87012 0.345147 8.89954 0.41333C8.92896 0.481513 8.94421 0.554891 8.94421 0.62915C8.94421 0.70341 8.92896 0.777032 8.89954 0.845215C8.87012 0.913398 8.8271 0.974687 8.77307 1.02563L1.48706 7.99976L8.77307 14.9749C8.8271 15.0258 8.87012 15.0871 8.89954 15.1553C8.92896 15.2235 8.94421 15.2971 8.94421 15.3713C8.94421 15.4456 8.92896 15.519 8.89954 15.5872C8.87012 15.6553 8.8271 15.7169 8.77307 15.7678C8.66086 15.8734 8.51269 15.9321 8.35864 15.9321C8.2046 15.9321 8.0563 15.8734 7.94409 15.7678Z" fill="#192841"/>
</svg>
